Input #0, mov,mp4,m4a,3gp,3g2,mj2, from '/home/hbattu/projects/huberman-gpt/huberman-audio/mp3/tmpuymrlp05.mp4':
  Metadata:
    major_brand     : dash
    minor_version   : 0
    compatible_brands: iso6mp41
    creation_time   : 2021-05-10T18:18:43.000000Z
  Duration: 01:23:50.35, start: 0.000000, bitrate: 129 kb/s
    Stream #0:0(und): Audio: aac (LC) (mp4a / 0x6134706D), 44100 Hz, stereo, fltp, 0 kb/s (default)
    Metadata:
      creation_time   : 2021-05-10T18:18:43.000000Z
      handler_name    : ISO Media file produced by Google Inc.
Stream mapping:
  Stream #0:0 -> #0:0 (aac (native) -> mp3 (libmp3lame))
Press [q] to stop, [?] for help
[graph_0_in_0_0 @ 0x55d5621dfb40] tb:1/44100 samplefmt:fltp samplerate:44100 chlayout:0x3
Output #0, mp3, to '../huberman-audio/mp3/xaE9XyMMAHY.mp3':
  Metadata:
    major_brand     : dash
    minor_version   : 0
    compatible_brands: iso6mp41
    TSSE            : Lavf58.29.100
    Stream #0:0(und): Audio: mp3 (libmp3lame), 44100 Hz, stereo, fltp, delay 1105 (default)
    Metadata:
      creation_time   : 2021-05-10T18:18:43.000000Z
      handler_name    : ISO Media file produced by Google Inc.
      encoder         : Lavc58.54.100 libmp3lame
No more output streams to write to, finishing.
size=   78600kB time=01:23:50.34 bitrate= 128.0kbits/s speed=82.9x    
[AVIOContext @ 0x55d5620d5900] Statistics: 0 seeks, 122 writeouts
video:0kB audio:78600kB subtitle:0kB other streams:0kB global headers:0kB muxing overhead: 0.000430%
Input file #0 (/home/hbattu/projects/huberman-gpt/huberman-audio/mp3/tmpuymrlp05.mp4):
  Input stream #0:0 (audio): 216639 packets read (80485564 bytes); 216639 frames decoded (221838336 samples); 
  Total: 216639 packets (80485564 bytes) demuxed
Output file #0 (../huberman-audio/mp3/xaE9XyMMAHY.mp3):
  Output stream #0:0 (audio): 192568 frames encoded (221838336 samples); 192569 packets muxed (80485982 bytes); 
  Total: 192569 packets (80485982 bytes) muxed
[AVIOContext @ 0x55d5620fad40] Statistics: 2 seeks, 309 writeouts
[AVIOContext @ 0x55d5620de880] Statistics: 81411248 bytes read, 0 seeks
